<?xml version="1.0" encoding="UTF-8"?>
<svg xmlns="http://www.w3.org/2000/svg" width="256" height="256" viewBox="0 0 128 128" role="img" aria-label="IslandFruitGuide">
  <defs>
    <linearGradient id="g" x1="0" y1="0" x2="1" y2="1">
      <stop offset="0" stop-color="#F9A825"/>
      <stop offset="1" stop-color="#FF7043"/>
    </linearGradient>
    <linearGradient id="leaf" x1="0" y1="1" x2="1" y2="0">
      <stop offset="0" stop-color="#1F7A4D"/>
      <stop offset="1" stop-color="#2A9D5E"/>
    </linearGradient>
  </defs>

  <!-- Background for strong visibility at small sizes -->
  <rect x="6" y="6" width="116" height="116" rx="28" fill="#FAFAFA"/>
  <rect x="6" y="6" width="116" height="116" rx="28" fill="none" stroke="#1F7A4D" stroke-width="6"/>

  <!-- Simple mango mark -->
  <path d="M78 24c-16 0-34 16-40 36-8 26 8 48 34 48 22 0 40-18 40-42 0-23-14-42-34-42z" fill="url(#g)" stroke="#222" stroke-opacity="0.12" stroke-width="3"/>

  <!-- Leaf accent -->
  <path d="M78 18c10 2 18 10 20 20-10 0-18-6-24-14 1-3 2-5 4-6z" fill="url(#leaf)"/>

  <!-- Small highlight -->
  <path d="M58 56c6-14 18-24 30-24" fill="none" stroke="#fff" stroke-opacity="0.55" stroke-width="6" stroke-linecap="round"/>
</svg>
